<svg xmlns="http://www.w3.org/2000/svg"
     width="72"
     height="72"
     viewBox="0 0 24 24">

<!-- Gear -->
<path fill="#058554"
d="M19.14 12.94c.03-.31.05-.63.05-.94s-.02-.63-.05-.94l2.11-1.65a.5.5 0 0 0 .12-.64l-2-3.46a.5.5 0 0 0-.6-.22l-2.49 1a7.3 7.3 0 0 0-1.63-.94l-.38-2.65a.5.5 0 0 0-.49-.41h-3.54a.5.5 0 0 0-.49.41l-.38 2.65c-.58.22-1.12.52-1.63.94l-2.49-1a.5.5 0 0 0-.6.22l-2 3.46a.5.5 0 0 0 .12.64l2.11 1.65c-.03.31-.05.63-.05.94s.02.63.05.94l-2.11 1.65a.5.5 0 0 0-.12.64l2 3.46c.14.24.43.34.69.22l2.49-1c.5.41 1.05.74 1.63.94l.38 2.65c.05.24.25.41.49.41h3.54c.24 0 .44-.17.49-.41l.38-2.65c.58-.22 1.12-.52 1.63-.94l2.49 1c.26.11.55.02.69-.22l2-3.46a.5.5 0 0 0-.12-.64l-2.11-1.65ZM12 15.5A3.5 3.5 0 1 1 12 8.5a3.5 3.5 0 0 1 0 7Z"/>

<!-- Document badge -->
<g transform="translate(14 14) scale(0.32)">

<!-- document -->
<rect x="4" y="2" width="12" height="16" rx="2" fill="white"/>

<!-- folded corner -->
<path d="M12 2v4h4" fill="#058554"/>

<!-- lines -->
<rect x="6.5" y="8" width="7" height="1.2" fill="#058554"/>
<rect x="6.5" y="11" width="7" height="1.2" fill="#058554"/>
<rect x="6.5" y="14" width="5" height="1.2" fill="#058554"/>

</g>

</svg>